<svg xmlns="http://www.w3.org/2000/svg" width="240" height="240" viewBox="0 0 240 240"><path d="M3.2,97.9 L32.4,84.5 L95.8,25.6 L105.8,2.6 L48.5,47.3 Z" fill="#111" stroke="#111" stroke-width="4.08" stroke-linejoin="round"/><path d="M149.8,144.4 L167.8,62.1 L94.5,24.3 L31.1,83.2 L65.2,157.4 Z" fill="#111" stroke="#111" stroke-width="4.08" stroke-linejoin="round"/><path d="M182.4,26.6 L102.9,3.0 L92.9,26.0 L166.3,63.8 L221.6,64.2 Z" fill="#111" stroke="#111" stroke-width="4.08" stroke-linejoin="round"/><path d="M220.4,61.7 L165.1,61.3 L147.1,143.5 L191.2,194.8 L236.5,144.2 Z" fill="#111" stroke="#111" stroke-width="4.08" stroke-linejoin="round"/><path d="M136.1,237.4 L193.4,192.8 L149.2,141.5 L64.7,154.6 L56.6,213.8 Z" fill="#111" stroke="#111" stroke-width="4.08" stroke-linejoin="round"/><path d="M67.2,155.9 L33.0,81.6 L3.8,95.1 L19.9,177.5 L59.1,215.1 Z" fill="#111" stroke="#111" stroke-width="4.08" stroke-linejoin="round"/><path d="M34.5,71.0 L46.7,65.4 L73.4,40.6 L77.6,31.0 L53.5,49.7 Z" fill="#7b2fbe" stroke="#7b2fbe" stroke-width="6.80" stroke-linejoin="round"/><path d="M20.8,86.7 L25.9,84.4 L34.3,76.6 L26.9,80.0 Z" fill="#7b2fbe" stroke="#7b2fbe" stroke-width="6.80" stroke-linejoin="round"/><path d="M55.4,62.2 L71.5,47.2 L73.4,42.7 L49.6,64.8 Z" fill="#7b2fbe" stroke="#7b2fbe" stroke-width="6.80" stroke-linejoin="round"/><path d="M93.8,21.3 L95.5,17.4 L87.9,23.3 L85.3,29.1 Z" fill="#7b2fbe" stroke="#7b2fbe" stroke-width="6.80" stroke-linejoin="round"/><path d="M81.5,22.7 L68.4,33.0 L60.3,42.0 L79.8,26.8 Z" fill="#7b2fbe" stroke="#7b2fbe" stroke-width="6.80" stroke-linejoin="round"/><path d="M29.4,73.4 L44.2,56.9 L34.4,64.6 L24.4,75.7 Z" fill="#7b2fbe" stroke="#7b2fbe" stroke-width="6.80" stroke-linejoin="round"/><path d="M10.8,91.3 L14.7,89.5 L20.7,82.8 L16.8,84.6 Z" fill="#7b2fbe" stroke="#7b2fbe" stroke-width="6.80" stroke-linejoin="round"/><path d="M31.7,81.8 L35.8,79.9 L44.6,71.8 L40.5,73.6 Z" fill="#7b2fbe" stroke="#7b2fbe" stroke-width="6.80" stroke-linejoin="round"/><path d="M81.7,37.3 L90.5,29.1 L91.9,25.9 L83.1,34.1 Z" fill="#7b2fbe" stroke="#7b2fbe" stroke-width="6.80" stroke-linejoin="round"/><path d="M97.6,12.5 L98.9,9.5 L91.3,15.4 L90.0,18.5 Z" fill="#7b2fbe" stroke="#7b2fbe" stroke-width="6.80" stroke-linejoin="round"/><path d="M57.3,41.9 L49.7,47.9 L43.7,54.6 L51.3,48.6 Z" fill="#7b2fbe" stroke="#7b2fbe" stroke-width="6.80" stroke-linejoin="round"/><path d="M124.2,117.7 L132.6,79.2 L98.3,61.5 L68.6,89.1 L84.6,123.8 Z" fill="#f4f4f4" stroke="#f4f4f4" stroke-width="6.80" stroke-linejoin="round"/><path d="M151.3,113.5 L156.1,91.4 L140.8,83.5 L133.7,116.2 Z" fill="#f4f4f4" stroke="#f4f4f4" stroke-width="6.80" stroke-linejoin="round"/><path d="M138.3,52.8 L118.7,42.7 L105.5,54.9 L134.6,69.9 Z" fill="#f4f4f4" stroke="#f4f4f4" stroke-width="6.80" stroke-linejoin="round"/><path d="M74.8,49.3 L57.6,65.3 L64.8,80.8 L90.1,57.3 Z" fill="#f4f4f4" stroke="#f4f4f4" stroke-width="6.80" stroke-linejoin="round"/><path d="M48.4,108.0 L57.5,127.9 L75.0,125.2 L61.5,95.8 Z" fill="#f4f4f4" stroke="#f4f4f4" stroke-width="6.80" stroke-linejoin="round"/><path d="M122.2,126.9 L88.4,132.1 L95.6,147.6 L118.4,144.1 Z" fill="#f4f4f4" stroke="#f4f4f4" stroke-width="6.80" stroke-linejoin="round"/><path d="M144.5,138.9 L147.8,124.1 L132.6,126.5 L129.3,141.2 Z" fill="#f4f4f4" stroke="#f4f4f4" stroke-width="6.80" stroke-linejoin="round"/><path d="M157.4,80.3 L160.6,65.6 L147.5,58.9 L144.2,73.6 Z" fill="#f4f4f4" stroke="#f4f4f4" stroke-width="6.80" stroke-linejoin="round"/><path d="M108.4,38.7 L95.2,31.9 L83.9,42.5 L97.0,49.3 Z" fill="#f4f4f4" stroke="#f4f4f4" stroke-width="6.80" stroke-linejoin="round"/><path d="M50.1,73.8 L38.8,84.4 L44.9,97.7 L56.3,87.1 Z" fill="#f4f4f4" stroke="#f4f4f4" stroke-width="6.80" stroke-linejoin="round"/><path d="M63.1,137.2 L69.2,150.5 L84.3,148.1 L78.2,134.9 Z" fill="#f4f4f4" stroke="#f4f4f4" stroke-width="6.80" stroke-linejoin="round"/><path d="M165.8,32.4 L131.5,22.2 L127.3,32.1 L158.8,48.4 L182.6,48.6 Z" fill="#ffd500" stroke="#ffd500" stroke-width="6.80" stroke-linejoin="round"/><path d="M153.7,19.9 L133.7,14.0 L131.8,18.5 L161.3,27.2 Z" fill="#ffd500" stroke="#ffd500" stroke-width="6.80" stroke-linejoin="round"/><path d="M106.1,15.3 L104.2,19.6 L115.0,25.2 L117.8,18.7 Z" fill="#ffd500" stroke="#ffd500" stroke-width="6.80" stroke-linejoin="round"/><path d="M122.8,39.4 L141.1,48.8 L151.8,48.9 L124.7,34.9 Z" fill="#ffd500" stroke="#ffd500" stroke-width="6.80" stroke-linejoin="round"/><path d="M183.2,60.6 L194.6,60.7 L188.4,54.7 L171.5,54.6 Z" fill="#ffd500" stroke="#ffd500" stroke-width="6.80" stroke-linejoin="round"/><path d="M179.4,36.8 L191.2,48.1 L200.0,48.2 L192.0,40.5 Z" fill="#ffd500" stroke="#ffd500" stroke-width="6.80" stroke-linejoin="round"/><path d="M178.4,28.0 L167.3,24.7 L172.8,30.0 L183.9,33.3 Z" fill="#ffd500" stroke="#ffd500" stroke-width="6.80" stroke-linejoin="round"/><path d="M120.8,10.9 L109.8,7.7 L108.4,10.8 L119.4,14.1 Z" fill="#ffd500" stroke="#ffd500" stroke-width="6.80" stroke-linejoin="round"/><path d="M102.6,24.3 L101.2,27.5 L111.3,32.7 L112.7,29.5 Z" fill="#ffd500" stroke="#ffd500" stroke-width="6.80" stroke-linejoin="round"/><path d="M154.2,54.8 L164.5,60.1 L172.3,60.2 L162.0,54.9 Z" fill="#ffd500" stroke="#ffd500" stroke-width="6.80" stroke-linejoin="round"/><path d="M204.6,60.3 L211.9,60.3 L206.7,55.3 L199.4,55.3 Z" fill="#ffd500" stroke="#ffd500" stroke-width="6.80" stroke-linejoin="round"/><path d="M204.9,94.2 L179.9,94.1 L171.7,131.2 L191.7,154.4 L212.2,131.5 Z" fill="#1565d8" stroke="#1565d8" stroke-width="6.80" stroke-linejoin="round"/><path d="M199.2,67.9 L186.2,67.8 L182.9,82.8 L202.2,83.0 Z" fill="#1565d8" stroke="#1565d8" stroke-width="6.80" stroke-linejoin="round"/><path d="M161.8,93.5 L157.1,114.9 L166.0,125.2 L173.0,93.5 Z" fill="#1565d8" stroke="#1565d8" stroke-width="6.80" stroke-linejoin="round"/><path d="M166.1,158.0 L176.9,170.5 L185.5,160.9 L169.5,142.4 Z" fill="#1565d8" stroke="#1565d8" stroke-width="6.80" stroke-linejoin="round"/><path d="M206.1,170.7 L217.2,158.3 L214.1,142.7 L197.7,161.0 Z" fill="#1565d8" stroke="#1565d8" stroke-width="6.80" stroke-linejoin="round"/><path d="M211.8,93.8 L218.0,125.5 L227.2,115.3 L223.0,93.9 Z" fill="#1565d8" stroke="#1565d8" stroke-width="6.80" stroke-linejoin="round"/><path d="M216.9,69.0 L208.1,68.9 L210.7,82.1 L219.5,82.1 Z" fill="#1565d8" stroke="#1565d8" stroke-width="6.80" stroke-linejoin="round"/><path d="M177.2,68.7 L168.4,68.6 L165.5,81.7 L174.4,81.8 Z" fill="#1565d8" stroke="#1565d8" stroke-width="6.80" stroke-linejoin="round"/><path d="M155.4,127.5 L152.5,140.8 L159.7,149.2 L162.6,135.8 Z" fill="#1565d8" stroke="#1565d8" stroke-width="6.80" stroke-linejoin="round"/><path d="M184.6,177.6 L191.3,185.4 L198.2,177.6 L191.5,169.8 Z" fill="#1565d8" stroke="#1565d8" stroke-width="6.80" stroke-linejoin="round"/><path d="M223.8,149.6 L231.2,141.4 L228.6,128.0 L221.2,136.2 Z" fill="#1565d8" stroke="#1565d8" stroke-width="6.80" stroke-linejoin="round"/><path d="M127.3,210.5 L153.4,190.2 L133.3,166.9 L94.9,172.8 L91.2,199.8 Z" fill="#e02020" stroke="#e02020" stroke-width="6.80" stroke-linejoin="round"/><path d="M153.1,218.0 L167.5,206.8 L158.9,196.8 L137.7,213.4 Z" fill="#e02020" stroke="#e02020" stroke-width="6.80" stroke-linejoin="round"/><path d="M171.6,175.6 L160.7,162.9 L144.5,165.4 L160.6,184.1 Z" fill="#e02020" stroke="#e02020" stroke-width="6.80" stroke-linejoin="round"/><path d="M119.3,150.0 L97.1,153.5 L95.4,165.5 L128.2,160.5 Z" fill="#e02020" stroke="#e02020" stroke-width="6.80" stroke-linejoin="round"/><path d="M67.8,177.4 L65.8,191.8 L80.7,196.2 L83.6,175.0 Z" fill="#e02020" stroke="#e02020" stroke-width="6.80" stroke-linejoin="round"/><path d="M120.5,216.2 L89.9,207.1 L88.2,219.0 L108.9,225.2 Z" fill="#e02020" stroke="#e02020" stroke-width="6.80" stroke-linejoin="round"/><path d="M134.2,231.6 L143.7,224.2 L130.5,220.3 L121.0,227.7 Z" fill="#e02020" stroke="#e02020" stroke-width="6.80" stroke-linejoin="round"/><path d="M175.2,199.2 L184.3,192.2 L177.3,184.1 L168.3,191.1 Z" fill="#e02020" stroke="#e02020" stroke-width="6.80" stroke-linejoin="round"/><path d="M153.1,155.5 L145.8,147.1 L131.8,149.2 L139.1,157.7 Z" fill="#e02020" stroke="#e02020" stroke-width="6.80" stroke-linejoin="round"/><path d="M85.2,156.5 L71.3,158.6 L70.0,168.3 L83.8,166.1 Z" fill="#e02020" stroke="#e02020" stroke-width="6.80" stroke-linejoin="round"/><path d="M65.6,201.1 L64.3,210.7 L77.1,214.5 L78.5,204.9 Z" fill="#e02020" stroke="#e02020" stroke-width="6.80" stroke-linejoin="round"/><path d="M49.9,149.7 L35.0,117.5 L22.3,123.3 L29.3,159.2 L46.4,175.5 Z" fill="#0fa84e" stroke="#0fa84e" stroke-width="6.80" stroke-linejoin="round"/><path d="M53.1,130.6 L44.5,112.1 L38.8,114.7 L51.5,142.2 Z" fill="#0fa84e" stroke="#0fa84e" stroke-width="6.80" stroke-linejoin="round"/><path d="M23.6,94.1 L17.8,96.8 L20.3,109.6 L28.9,105.7 Z" fill="#0fa84e" stroke="#0fa84e" stroke-width="6.80" stroke-linejoin="round"/><path d="M12.2,126.7 L16.3,147.6 L24.0,155.0 L18.0,124.0 Z" fill="#0fa84e" stroke="#0fa84e" stroke-width="6.80" stroke-linejoin="round"/><path d="M35.0,186.2 L43.3,194.2 L44.7,184.5 L32.4,172.7 Z" fill="#0fa84e" stroke="#0fa84e" stroke-width="6.80" stroke-linejoin="round"/><path d="M55.2,161.7 L52.5,180.9 L59.2,187.3 L61.0,174.3 Z" fill="#0fa84e" stroke="#0fa84e" stroke-width="6.80" stroke-linejoin="round"/><path d="M63.1,154.4 L58.2,143.7 L57.0,152.3 L62.0,163.0 Z" fill="#0fa84e" stroke="#0fa84e" stroke-width="6.80" stroke-linejoin="round"/><path d="M38.3,100.7 L33.5,90.3 L29.4,92.2 L34.2,102.6 Z" fill="#0fa84e" stroke="#0fa84e" stroke-width="6.80" stroke-linejoin="round"/><path d="M12.4,99.8 L8.2,101.7 L10.5,113.6 L14.7,111.7 Z" fill="#0fa84e" stroke="#0fa84e" stroke-width="6.80" stroke-linejoin="round"/><path d="M19.8,161.2 L22.1,173.3 L27.8,178.7 L25.5,166.7 Z" fill="#0fa84e" stroke="#0fa84e" stroke-width="6.80" stroke-linejoin="round"/><path d="M50.7,200.2 L55.9,205.2 L57.0,197.4 L51.8,192.4 Z" fill="#0fa84e" stroke="#0fa84e" stroke-width="6.80" stroke-linejoin="round"/></svg>