<svg xmlns="http://www.w3.org/2000/svg" width="240" height="240" viewBox="0 0 240 240"><path d="M3.2,97.9 L32.4,84.5 L95.8,25.6 L105.8,2.6 L48.5,47.3 Z" fill="#111" stroke="#111" stroke-width="4.08" stroke-linejoin="round"/><path d="M149.8,144.4 L167.8,62.1 L94.5,24.3 L31.1,83.2 L65.2,157.4 Z" fill="#111" stroke="#111" stroke-width="4.08" stroke-linejoin="round"/><path d="M182.4,26.6 L102.9,3.0 L92.9,26.0 L166.3,63.8 L221.6,64.2 Z" fill="#111" stroke="#111" stroke-width="4.08" stroke-linejoin="round"/><path d="M220.4,61.7 L165.1,61.3 L147.1,143.5 L191.2,194.8 L236.5,144.2 Z" fill="#111" stroke="#111" stroke-width="4.08" stroke-linejoin="round"/><path d="M136.1,237.4 L193.4,192.8 L149.2,141.5 L64.7,154.6 L56.6,213.8 Z" fill="#111" stroke="#111" stroke-width="4.08" stroke-linejoin="round"/><path d="M67.2,155.9 L33.0,81.6 L3.8,95.1 L19.9,177.5 L59.1,215.1 Z" fill="#111" stroke="#111" stroke-width="4.08" stroke-linejoin="round"/><path d="M30.6,74.3 L45.0,67.7 L76.1,38.8 L81.0,27.5 L52.9,49.4 Z" fill="#7b2fbe" stroke="#7b2fbe" stroke-width="3.40" stroke-linejoin="round"/><path d="M17.2,89.5 L25.2,85.9 L38.6,73.5 L26.8,78.8 Z" fill="#7b2fbe" stroke="#7b2fbe" stroke-width="3.40" stroke-linejoin="round"/><path d="M53.6,64.1 L73.7,45.4 L76.2,39.8 L46.4,67.4 Z" fill="#7b2fbe" stroke="#7b2fbe" stroke-width="3.40" stroke-linejoin="round"/><path d="M95.6,20.5 L98.4,14.2 L86.2,23.6 L82.2,32.9 Z" fill="#7b2fbe" stroke="#7b2fbe" stroke-width="3.40" stroke-linejoin="round"/><path d="M84.5,19.9 L67.0,33.6 L56.3,45.6 L82.1,25.4 Z" fill="#7b2fbe" stroke="#7b2fbe" stroke-width="3.40" stroke-linejoin="round"/><path d="M28.1,75.5 L48.3,53.0 L34.9,63.4 L21.3,78.7 Z" fill="#7b2fbe" stroke="#7b2fbe" stroke-width="3.40" stroke-linejoin="round"/><path d="M8.4,93.4 L14.2,90.7 L23.1,80.8 L17.3,83.4 Z" fill="#7b2fbe" stroke="#7b2fbe" stroke-width="3.40" stroke-linejoin="round"/><path d="M28.1,84.6 L34.5,81.7 L48.2,68.9 L41.9,71.8 Z" fill="#7b2fbe" stroke="#7b2fbe" stroke-width="3.40" stroke-linejoin="round"/><path d="M78.8,40.5 L92.6,27.7 L94.7,22.7 L81.0,35.5 Z" fill="#7b2fbe" stroke="#7b2fbe" stroke-width="3.40" stroke-linejoin="round"/><path d="M99.2,11.8 L101.2,7.1 L89.6,16.2 L87.6,20.8 Z" fill="#7b2fbe" stroke="#7b2fbe" stroke-width="3.40" stroke-linejoin="round"/><path d="M61.1,38.4 L49.3,47.6 L39.9,58.1 L51.8,48.9 Z" fill="#7b2fbe" stroke="#7b2fbe" stroke-width="3.40" stroke-linejoin="round"/><path d="M126.5,120.1 L135.8,77.7 L98.0,58.2 L65.3,88.5 L82.9,126.8 Z" fill="#f4f4f4" stroke="#f4f4f4" stroke-width="3.40" stroke-linejoin="round"/><path d="M152.5,116.1 L158.4,89.3 L139.9,79.8 L131.2,119.3 Z" fill="#f4f4f4" stroke="#f4f4f4" stroke-width="3.40" stroke-linejoin="round"/><path d="M141.3,52.3 L117.5,40.1 L101.6,54.9 L136.8,73.0 Z" fill="#f4f4f4" stroke="#f4f4f4" stroke-width="3.40" stroke-linejoin="round"/><path d="M75.4,46.5 L54.7,65.7 L63.3,84.4 L93.9,56.1 Z" fill="#f4f4f4" stroke="#f4f4f4" stroke-width="3.40" stroke-linejoin="round"/><path d="M45.8,106.7 L56.9,130.8 L78.1,127.5 L61.7,91.9 Z" fill="#f4f4f4" stroke="#f4f4f4" stroke-width="3.40" stroke-linejoin="round"/><path d="M125.5,124.7 L84.8,130.9 L93.4,149.7 L120.9,145.4 Z" fill="#f4f4f4" stroke="#f4f4f4" stroke-width="3.40" stroke-linejoin="round"/><path d="M146.5,140.9 L150.7,121.4 L130.7,124.5 L126.4,144.0 Z" fill="#f4f4f4" stroke="#f4f4f4" stroke-width="3.40" stroke-linejoin="round"/><path d="M159.0,83.8 L163.2,64.3 L145.9,55.4 L141.6,74.9 Z" fill="#f4f4f4" stroke="#f4f4f4" stroke-width="3.40" stroke-linejoin="round"/><path d="M112.4,38.1 L95.0,29.1 L79.9,43.1 L97.3,52.1 Z" fill="#f4f4f4" stroke="#f4f4f4" stroke-width="3.40" stroke-linejoin="round"/><path d="M51.0,70.0 L35.9,83.9 L44.1,101.5 L59.1,87.6 Z" fill="#f4f4f4" stroke="#f4f4f4" stroke-width="3.40" stroke-linejoin="round"/><path d="M59.7,135.4 L67.8,153.0 L87.8,149.9 L79.7,132.3 Z" fill="#f4f4f4" stroke="#f4f4f4" stroke-width="3.40" stroke-linejoin="round"/><path d="M167.7,31.7 L128.2,20.0 L123.3,31.4 L159.7,50.2 L187.2,50.4 Z" fill="#ffd500" stroke="#ffd500" stroke-width="3.40" stroke-linejoin="round"/><path d="M155.9,19.9 L130.8,12.5 L128.3,18.1 L165.5,29.1 Z" fill="#ffd500" stroke="#ffd500" stroke-width="3.40" stroke-linejoin="round"/><path d="M103.8,13.0 L100.9,19.6 L117.1,27.9 L121.3,18.2 Z" fill="#ffd500" stroke="#ffd500" stroke-width="3.40" stroke-linejoin="round"/><path d="M119.5,38.4 L142.7,50.4 L156.2,50.4 L122.0,32.8 Z" fill="#ffd500" stroke="#ffd500" stroke-width="3.40" stroke-linejoin="round"/><path d="M182.7,61.9 L198.9,62.0 L190.0,53.5 L166.1,53.3 Z" fill="#ffd500" stroke="#ffd500" stroke-width="3.40" stroke-linejoin="round"/><path d="M174.5,33.9 L191.5,50.2 L204.0,50.2 L192.5,39.3 Z" fill="#ffd500" stroke="#ffd500" stroke-width="3.40" stroke-linejoin="round"/><path d="M180.0,27.5 L162.7,22.3 L171.2,30.5 L188.5,35.6 Z" fill="#ffd500" stroke="#ffd500" stroke-width="3.40" stroke-linejoin="round"/><path d="M124.3,10.9 L107.1,5.8 L104.9,10.8 L122.1,15.9 Z" fill="#ffd500" stroke="#ffd500" stroke-width="3.40" stroke-linejoin="round"/><path d="M100.1,21.9 L98.0,26.9 L113.8,35.1 L116.0,30.1 Z" fill="#ffd500" stroke="#ffd500" stroke-width="3.40" stroke-linejoin="round"/><path d="M149.2,53.4 L165.2,61.6 L177.2,61.7 L161.3,53.4 Z" fill="#ffd500" stroke="#ffd500" stroke-width="3.40" stroke-linejoin="round"/><path d="M204.0,61.5 L215.1,61.6 L207.3,54.1 L196.2,54.0 Z" fill="#ffd500" stroke="#ffd500" stroke-width="3.40" stroke-linejoin="round"/><path d="M206.5,90.9 L178.4,90.7 L169.2,132.5 L191.6,158.5 L214.6,132.8 Z" fill="#1565d8" stroke="#1565d8" stroke-width="3.40" stroke-linejoin="round"/><path d="M201.2,65.6 L184.2,65.5 L179.9,85.1 L205.1,85.3 Z" fill="#1565d8" stroke="#1565d8" stroke-width="3.40" stroke-linejoin="round"/><path d="M161.2,90.4 L155.4,116.7 L166.4,129.5 L174.9,90.5 Z" fill="#1565d8" stroke="#1565d8" stroke-width="3.40" stroke-linejoin="round"/><path d="M163.7,158.0 L177.5,174.0 L188.5,161.7 L168.1,138.1 Z" fill="#1565d8" stroke="#1565d8" stroke-width="3.40" stroke-linejoin="round"/><path d="M205.4,174.2 L219.5,158.4 L215.6,138.4 L194.6,161.8 Z" fill="#1565d8" stroke="#1565d8" stroke-width="3.40" stroke-linejoin="round"/><path d="M209.9,90.7 L217.6,129.8 L228.8,117.2 L223.7,90.8 Z" fill="#1565d8" stroke="#1565d8" stroke-width="3.40" stroke-linejoin="round"/><path d="M218.3,66.2 L205.7,66.1 L209.4,84.8 L221.9,84.9 Z" fill="#1565d8" stroke="#1565d8" stroke-width="3.40" stroke-linejoin="round"/><path d="M179.7,65.9 L167.2,65.8 L163.1,84.5 L175.6,84.6 Z" fill="#1565d8" stroke="#1565d8" stroke-width="3.40" stroke-linejoin="round"/><path d="M154.6,123.0 L150.4,141.9 L160.5,153.6 L164.7,134.8 Z" fill="#1565d8" stroke="#1565d8" stroke-width="3.40" stroke-linejoin="round"/><path d="M181.4,177.5 L191.3,189.0 L201.4,177.7 L191.5,166.2 Z" fill="#1565d8" stroke="#1565d8" stroke-width="3.40" stroke-linejoin="round"/><path d="M222.8,154.0 L233.2,142.4 L229.5,123.6 L219.1,135.1 Z" fill="#1565d8" stroke="#1565d8" stroke-width="3.40" stroke-linejoin="round"/><path d="M128.2,213.2 L157.3,190.4 L134.9,164.4 L91.9,171.0 L87.7,201.2 Z" fill="#e02020" stroke="#e02020" stroke-width="3.40" stroke-linejoin="round"/><path d="M152.8,220.4 L170.9,206.3 L160.1,193.8 L133.4,214.6 Z" fill="#e02020" stroke="#e02020" stroke-width="3.40" stroke-linejoin="round"/><path d="M174.9,176.5 L161.0,160.5 L140.5,163.6 L161.0,187.4 Z" fill="#e02020" stroke="#e02020" stroke-width="3.40" stroke-linejoin="round"/><path d="M121.3,148.4 L94.2,152.6 L92.1,167.4 L132.4,161.2 Z" fill="#e02020" stroke="#e02020" stroke-width="3.40" stroke-linejoin="round"/><path d="M65.8,175.2 L63.3,193.7 L82.5,199.4 L86.2,172.1 Z" fill="#e02020" stroke="#e02020" stroke-width="3.40" stroke-linejoin="round"/><path d="M124.8,216.0 L87.1,204.8 L85.1,219.5 L110.6,227.1 Z" fill="#e02020" stroke="#e02020" stroke-width="3.40" stroke-linejoin="round"/><path d="M134.9,233.8 L148.1,223.5 L129.8,218.1 L116.6,228.4 Z" fill="#e02020" stroke="#e02020" stroke-width="3.40" stroke-linejoin="round"/><path d="M174.8,202.5 L187.7,192.4 L177.8,180.8 L164.8,190.9 Z" fill="#e02020" stroke="#e02020" stroke-width="3.40" stroke-linejoin="round"/><path d="M157.2,156.8 L147.1,145.0 L127.6,148.0 L137.8,159.8 Z" fill="#e02020" stroke="#e02020" stroke-width="3.40" stroke-linejoin="round"/><path d="M88.2,154.1 L68.8,157.1 L67.0,170.6 L86.3,167.7 Z" fill="#e02020" stroke="#e02020" stroke-width="3.40" stroke-linejoin="round"/><path d="M63.2,198.4 L61.4,211.9 L79.5,217.3 L81.4,203.7 Z" fill="#e02020" stroke="#e02020" stroke-width="3.40" stroke-linejoin="round"/><path d="M51.9,150.4 L34.8,113.4 L20.2,120.1 L28.3,161.3 L47.8,180.0 Z" fill="#0fa84e" stroke="#0fa84e" stroke-width="3.40" stroke-linejoin="round"/><path d="M54.6,132.1 L43.8,108.7 L36.7,112.0 L52.7,146.6 Z" fill="#0fa84e" stroke="#0fa84e" stroke-width="3.40" stroke-linejoin="round"/><path d="M24.1,90.8 L15.6,94.7 L19.2,113.3 L31.8,107.5 Z" fill="#0fa84e" stroke="#0fa84e" stroke-width="3.40" stroke-linejoin="round"/><path d="M10.9,123.8 L16.0,149.9 L25.6,159.2 L18.0,120.5 Z" fill="#0fa84e" stroke="#0fa84e" stroke-width="3.40" stroke-linejoin="round"/><path d="M33.5,187.0 L45.1,198.1 L47.0,184.5 L29.8,168.0 Z" fill="#0fa84e" stroke="#0fa84e" stroke-width="3.40" stroke-linejoin="round"/><path d="M54.5,156.4 L50.9,182.7 L60.0,191.4 L62.4,173.7 Z" fill="#0fa84e" stroke="#0fa84e" stroke-width="3.40" stroke-linejoin="round"/><path d="M64.7,155.0 L57.2,138.7 L55.4,151.7 L62.9,168.0 Z" fill="#0fa84e" stroke="#0fa84e" stroke-width="3.40" stroke-linejoin="round"/><path d="M40.7,103.0 L33.3,86.9 L27.0,89.8 L34.4,105.9 Z" fill="#0fa84e" stroke="#0fa84e" stroke-width="3.40" stroke-linejoin="round"/><path d="M12.9,96.2 L6.5,99.1 L10.0,117.2 L16.4,114.3 Z" fill="#0fa84e" stroke="#0fa84e" stroke-width="3.40" stroke-linejoin="round"/><path d="M17.7,156.7 L21.3,174.9 L29.9,183.2 L26.4,165.0 Z" fill="#0fa84e" stroke="#0fa84e" stroke-width="3.40" stroke-linejoin="round"/><path d="M49.0,201.0 L57.1,208.8 L58.7,196.6 L50.7,188.8 Z" fill="#0fa84e" stroke="#0fa84e" stroke-width="3.40" stroke-linejoin="round"/><path d="M203.9,77.6 L206.1,78.4 L208.3,79.4 L210.4,80.8 L212.4,82.4 L214.3,84.2 L216.2,86.3 L217.9,88.6 L219.5,91.2 L220.9,93.9 L222.2,96.8 L223.4,99.8 L224.4,103.0 L225.2,106.4 L225.8,109.8 L226.3,113.3 L226.6,116.8 L226.7,120.4 L226.6,123.9" fill="none" stroke="#fff" stroke-width="10.89" stroke-linecap="round"/><path d="M203.9,77.6 L206.1,78.4 L208.3,79.4 L210.4,80.8 L212.4,82.4 L214.3,84.2 L216.2,86.3 L217.9,88.6 L219.5,91.2 L220.9,93.9 L222.2,96.8 L223.4,99.8 L224.4,103.0 L225.2,106.4 L225.8,109.8 L226.3,113.3 L226.6,116.8 L226.7,120.4 L226.6,123.9" fill="none" stroke="#e02020" stroke-width="6.80" stroke-linecap="round"/><path d="M226.2,143.0 L211.6,112.2 L242.1,112.8 Z" fill="#e02020" stroke="#fff" stroke-width="2.04"/></svg>