<svg xmlns="http://www.w3.org/2000/svg" width="240" height="240" viewBox="0 0 240 240"><path d="M3.2,97.9 L32.4,84.5 L95.8,25.6 L105.8,2.6 L48.5,47.3 Z" fill="#111" stroke="#111" stroke-width="4.08" stroke-linejoin="round"/><path d="M149.8,144.4 L167.8,62.1 L94.5,24.3 L31.1,83.2 L65.2,157.4 Z" fill="#111" stroke="#111" stroke-width="4.08" stroke-linejoin="round"/><path d="M182.4,26.6 L102.9,3.0 L92.9,26.0 L166.3,63.8 L221.6,64.2 Z" fill="#111" stroke="#111" stroke-width="4.08" stroke-linejoin="round"/><path d="M220.4,61.7 L165.1,61.3 L147.1,143.5 L191.2,194.8 L236.5,144.2 Z" fill="#111" stroke="#111" stroke-width="4.08" stroke-linejoin="round"/><path d="M136.1,237.4 L193.4,192.8 L149.2,141.5 L64.7,154.6 L56.6,213.8 Z" fill="#111" stroke="#111" stroke-width="4.08" stroke-linejoin="round"/><path d="M67.2,155.9 L33.0,81.6 L3.8,95.1 L19.9,177.5 L59.1,215.1 Z" fill="#111" stroke="#111" stroke-width="4.08" stroke-linejoin="round"/><path d="M37.2,66.8 Q29.8,75.0 34.6,72.8 L39.9,70.4 Q44.6,68.2 54.9,58.7 L66.4,47.9 Q76.7,38.4 78.3,34.7 L80.1,30.5 Q81.7,26.8 72.5,34.0 L62.0,42.1 Q52.8,49.4 45.4,57.6 Z" fill="#7b2fbe"/><path d="M19.5,86.5 Q16.5,89.9 19.5,88.5 L22.9,87.0 Q25.9,85.6 30.2,81.6 L35.1,77.1 Q39.4,73.1 35.1,75.0 L30.3,77.2 Q26.1,79.2 23.0,82.6 Z" fill="#7b2fbe"/><path d="M51.3,65.1 Q53.2,64.2 59.8,58.1 L67.2,51.3 Q73.8,45.2 74.4,43.6 L75.2,41.9 Q75.9,40.3 66.6,48.9 L56.3,58.5 Q47.0,67.1 49.0,66.2 Z" fill="#7b2fbe"/><path d="M91.1,25.0 Q95.4,21.0 96.4,18.6 L97.6,16.0 Q98.6,13.6 94.7,16.6 L90.4,20.0 Q86.5,23.1 85.0,26.4 L83.4,30.2 Q81.9,33.5 86.2,29.5 Z" fill="#7b2fbe"/><path d="M84.0,21.5 Q84.7,20.0 78.8,24.6 L72.1,29.8 Q66.2,34.4 63.1,37.9 L59.6,41.8 Q56.5,45.2 64.9,38.7 L74.2,31.4 Q82.6,24.9 83.2,23.3 Z" fill="#7b2fbe"/><path d="M25.4,77.0 Q27.4,76.1 34.0,68.7 L41.4,60.4 Q48.0,53.1 44.2,56.1 L39.8,59.5 Q35.9,62.6 31.2,67.8 L25.9,73.7 Q21.2,78.9 23.2,78.0 Z" fill="#7b2fbe"/><path d="M10.9,90.4 Q7.8,93.9 9.8,93.0 L12.1,91.9 Q14.0,91.0 17.1,87.6 L20.6,83.7 Q23.7,80.3 21.7,81.2 L19.5,82.2 Q17.5,83.1 14.4,86.6 Z" fill="#7b2fbe"/><path d="M32.6,80.5 Q28.3,84.5 30.3,83.6 L32.5,82.5 Q34.5,81.6 38.8,77.6 L43.7,73.1 Q48.0,69.1 46.0,70.0 L43.8,71.0 Q41.8,72.0 37.5,76.0 Z" fill="#7b2fbe"/><path d="M79.7,38.7 Q79.0,40.3 83.3,36.3 L88.2,31.8 Q92.5,27.8 93.1,26.2 L93.9,24.5 Q94.6,22.9 90.3,26.9 L85.4,31.4 Q81.1,35.4 80.4,37.0 Z" fill="#7b2fbe"/><path d="M95.6,14.7 Q99.5,11.7 100.1,10.1 L100.9,8.4 Q101.6,6.8 97.7,9.8 L93.3,13.3 Q89.4,16.3 88.7,17.9 L88.0,19.6 Q87.3,21.2 91.2,18.1 Z" fill="#7b2fbe"/><path d="M58.3,41.6 Q61.4,38.1 57.5,41.2 L53.2,44.6 Q49.3,47.6 46.2,51.1 L42.7,54.9 Q39.6,58.4 43.5,55.3 L47.9,51.9 Q51.8,48.9 54.9,45.4 Z" fill="#7b2fbe"/><path d="M112.3,121.7 Q126.0,119.6 128.9,106.3 L132.2,91.3 Q135.1,78.0 123.3,71.9 L109.9,65.0 Q98.0,58.8 87.8,68.4 L76.2,79.1 Q65.9,88.6 71.5,100.7 L77.7,114.2 Q83.2,126.2 96.9,124.1 Z" fill="#f4f4f4"/><path d="M145.2,116.6 Q150.9,115.8 152.8,107.2 L154.9,97.7 Q156.8,89.1 151.8,86.6 L146.2,83.7 Q141.2,81.1 138.6,93.1 L135.6,106.6 Q133.0,118.5 138.7,117.6 Z" fill="#f4f4f4"/><path d="M139.2,59.3 Q140.5,53.7 132.9,49.8 L124.3,45.4 Q116.7,41.5 112.4,45.5 L107.6,50.0 Q103.3,54.0 113.9,59.5 L126.0,65.7 Q136.6,71.2 137.9,65.6 Z" fill="#f4f4f4"/><path d="M81.4,50.3 Q76.4,47.7 69.8,53.8 L62.4,60.6 Q55.9,66.7 58.2,71.8 L60.8,77.5 Q63.1,82.5 72.3,73.9 L82.7,64.3 Q92.0,55.7 87.0,53.2 Z" fill="#f4f4f4"/><path d="M51.5,102.0 Q47.2,106.0 50.8,113.7 L54.8,122.4 Q58.3,130.0 64.0,129.2 L70.5,128.2 Q76.3,127.3 71.3,116.5 L65.7,104.3 Q60.7,93.5 56.4,97.5 Z" fill="#f4f4f4"/><path d="M123.3,132.0 Q124.5,126.4 112.2,128.3 L98.4,130.4 Q86.1,132.3 88.4,137.4 L91.0,143.0 Q93.3,148.1 102.1,146.7 L111.9,145.2 Q120.7,143.9 121.9,138.3 Z" fill="#f4f4f4"/><path d="M139.9,140.9 Q145.6,140.0 146.8,134.4 L148.2,128.1 Q149.5,122.6 143.7,123.4 L137.2,124.4 Q131.5,125.3 130.3,130.9 L128.9,137.2 Q127.7,142.8 133.4,141.9 Z" fill="#f4f4f4"/><path d="M153.3,79.8 Q158.3,82.3 159.5,76.7 L160.9,70.5 Q162.1,64.9 157.1,62.3 L151.5,59.4 Q146.5,56.8 145.3,62.4 L143.9,68.7 Q142.7,74.3 147.7,76.9 Z" fill="#f4f4f4"/><path d="M106.4,42.3 Q110.7,38.3 105.7,35.8 L100.1,32.9 Q95.1,30.3 90.8,34.3 L85.9,38.8 Q81.6,42.8 86.6,45.4 L92.2,48.3 Q97.2,50.9 101.5,46.9 Z" fill="#f4f4f4"/><path d="M52.9,76.7 Q50.6,71.6 46.3,75.6 L41.5,80.1 Q37.1,84.1 39.5,89.2 L42.1,94.8 Q44.4,99.9 48.7,95.9 L53.6,91.4 Q57.9,87.4 55.6,82.3 Z" fill="#f4f4f4"/><path d="M66.9,135.3 Q61.1,136.2 63.4,141.2 L66.1,146.9 Q68.4,151.9 74.1,151.1 L80.6,150.1 Q86.3,149.2 84.0,144.1 L81.4,138.4 Q79.1,133.4 73.3,134.3 Z" fill="#f4f4f4"/><path d="M174.3,37.7 Q168.0,31.6 155.1,27.8 L140.6,23.5 Q127.7,19.7 126.1,23.4 L124.3,27.6 Q122.7,31.3 134.6,37.4 L147.9,44.3 Q159.8,50.4 168.8,50.5 L178.9,50.6 Q187.8,50.6 181.5,44.5 Z" fill="#ffd500"/><path d="M159.1,23.1 Q156.4,20.5 148.2,18.1 L138.9,15.3 Q130.7,12.9 130.0,14.5 L129.2,16.2 Q128.6,17.8 140.1,21.2 L153.2,25.1 Q164.7,28.5 162.1,26.0 Z" fill="#ffd500"/><path d="M109.7,14.3 Q104.3,12.7 103.2,15.1 L102.1,17.8 Q101.1,20.1 106.0,22.7 L111.7,25.6 Q116.6,28.2 118.1,24.8 L119.7,21.1 Q121.2,17.7 115.8,16.1 Z" fill="#ffd500"/><path d="M120.4,36.5 Q119.8,38.1 127.4,42.0 L135.9,46.4 Q143.5,50.3 147.3,50.4 L151.5,50.4 Q155.3,50.4 144.6,44.9 L132.6,38.7 Q121.9,33.2 121.2,34.8 Z" fill="#ffd500"/><path d="M176.5,59.0 Q181.5,61.6 187.2,61.6 L193.6,61.7 Q199.4,61.7 196.7,59.2 L193.7,56.3 Q191.0,53.7 183.0,53.7 L173.9,53.6 Q165.9,53.6 170.9,56.1 Z" fill="#ffd500"/><path d="M180.0,35.2 Q174.6,33.6 180.3,39.0 L186.7,45.2 Q192.4,50.7 196.1,50.7 L200.4,50.7 Q204.1,50.7 200.1,46.9 L195.5,42.5 Q191.4,38.6 186.0,37.0 Z" fill="#ffd500"/><path d="M182.5,30.0 Q179.9,27.5 174.5,25.9 L168.4,24.1 Q163.0,22.5 165.7,25.0 L168.7,27.9 Q171.3,30.5 176.7,32.1 L182.8,33.9 Q188.2,35.5 185.5,32.9 Z" fill="#ffd500"/><path d="M123.4,12.5 Q124.1,10.9 118.7,9.3 L112.6,7.5 Q107.2,5.9 106.5,7.5 L105.8,9.2 Q105.1,10.8 110.5,12.4 L116.6,14.2 Q122.0,15.8 122.7,14.3 Z" fill="#ffd500"/><path d="M105.2,24.6 Q100.2,22.0 99.6,23.6 L98.8,25.4 Q98.1,26.9 103.1,29.5 L108.7,32.4 Q113.7,35.0 114.4,33.4 L115.1,31.6 Q115.8,30.1 110.8,27.5 Z" fill="#ffd500"/><path d="M153.3,53.5 Q149.6,53.4 154.6,56.0 L160.2,58.9 Q165.2,61.5 168.9,61.5 L173.1,61.5 Q176.9,61.6 171.9,59.0 L166.3,56.1 Q161.3,53.5 157.6,53.5 Z" fill="#ffd500"/><path d="M201.3,59.2 Q203.9,61.8 207.7,61.8 L211.9,61.8 Q215.7,61.8 213.0,59.3 L210.0,56.4 Q207.4,53.8 203.6,53.8 L199.4,53.8 Q195.6,53.8 198.3,56.3 Z" fill="#ffd500"/><path d="M209.0,104.4 Q206.4,91.0 197.5,91.0 L187.4,90.9 Q178.4,90.8 175.5,104.1 L172.2,119.1 Q169.3,132.5 176.4,140.7 L184.5,150.1 Q191.6,158.4 199.0,150.2 L207.2,141.0 Q214.6,132.8 212.0,119.4 Z" fill="#1565d8"/><path d="M202.8,72.3 Q201.7,66.7 195.9,66.6 L189.5,66.6 Q183.8,66.6 182.5,72.1 L181.1,78.4 Q179.9,84.0 188.0,84.1 L197.0,84.1 Q205.1,84.2 204.0,78.6 Z" fill="#1565d8"/><path d="M165.9,90.7 Q162.1,90.7 160.2,99.2 L158.1,108.8 Q156.3,117.3 159.3,120.8 L162.6,124.7 Q165.6,128.2 168.3,116.2 L171.2,102.8 Q173.9,90.8 170.1,90.8 Z" fill="#1565d8"/><path d="M165.2,151.1 Q164.0,156.7 168.5,162.0 L173.7,168.0 Q178.2,173.3 181.3,169.9 L184.8,166.0 Q187.9,162.5 181.5,155.1 L174.2,146.7 Q167.8,139.2 166.6,144.8 Z" fill="#1565d8"/><path d="M201.7,170.0 Q204.7,173.5 209.4,168.2 L214.6,162.3 Q219.3,157.1 218.2,151.5 L217.0,145.2 Q215.9,139.6 209.3,146.9 L201.9,155.2 Q195.3,162.6 198.3,166.1 Z" fill="#1565d8"/><path d="M214.7,91.1 Q211.0,91.1 213.3,103.1 L216.0,116.6 Q218.3,128.6 221.4,125.1 L224.9,121.3 Q228.0,117.8 226.3,109.3 L224.4,99.7 Q222.7,91.1 219.0,91.1 Z" fill="#1565d8"/><path d="M219.1,72.4 Q218.0,66.8 214.2,66.8 L210.0,66.7 Q206.2,66.7 207.3,72.3 L208.6,78.6 Q209.6,84.2 213.4,84.3 L217.6,84.3 Q221.4,84.3 220.3,78.7 Z" fill="#1565d8"/><path d="M178.0,72.1 Q179.2,66.5 175.4,66.5 L171.2,66.5 Q167.4,66.4 166.2,72.0 L164.8,78.3 Q163.6,83.9 167.4,83.9 L171.6,84.0 Q175.4,84.0 176.6,78.4 Z" fill="#1565d8"/><path d="M157.8,127.6 Q154.8,124.1 153.5,129.7 L152.2,136.0 Q150.9,141.6 153.9,145.1 L157.3,149.0 Q160.3,152.5 161.5,146.9 L162.9,140.6 Q164.2,135.0 161.2,131.5 Z" fill="#1565d8"/><path d="M185.0,174.1 Q181.9,177.5 184.9,181.0 L188.3,184.9 Q191.3,188.4 194.4,185.0 L197.8,181.1 Q200.9,177.7 197.9,174.2 L194.5,170.3 Q191.5,166.8 188.4,170.2 Z" fill="#1565d8"/><path d="M222.0,147.3 Q223.1,152.9 226.2,149.5 L229.6,145.6 Q232.7,142.2 231.6,136.6 L230.4,130.3 Q229.3,124.6 226.2,128.1 L222.7,132.0 Q219.6,135.4 220.7,141.0 Z" fill="#1565d8"/><path d="M115.3,209.2 Q128.2,213.0 137.4,205.8 L147.9,197.7 Q157.1,190.4 150.0,182.1 L141.9,172.8 Q134.8,164.5 121.1,166.6 L105.7,169.0 Q92.0,171.1 90.7,180.7 L89.2,191.5 Q87.9,201.1 100.8,204.9 Z" fill="#e02020"/><path d="M146.2,218.4 Q151.6,220.0 157.6,215.4 L164.2,210.2 Q170.2,205.5 167.1,202.1 L163.8,198.1 Q160.8,194.7 152.4,201.2 L143.1,208.5 Q134.7,215.0 140.1,216.6 Z" fill="#e02020"/><path d="M170.1,180.3 Q174.0,177.2 169.4,171.9 L164.3,166.0 Q159.7,160.7 154.0,161.5 L147.5,162.5 Q141.8,163.4 148.2,170.9 L155.4,179.3 Q161.9,186.7 165.7,183.7 Z" fill="#e02020"/><path d="M124.8,152.9 Q121.8,149.4 113.0,150.7 L103.2,152.3 Q94.4,153.6 93.9,157.6 L93.2,162.2 Q92.7,166.2 105.0,164.3 L118.8,162.2 Q131.1,160.3 128.1,156.8 Z" fill="#e02020"/><path d="M72.8,174.1 Q67.1,174.9 66.2,181.1 L65.3,188.0 Q64.5,194.1 69.9,195.7 L75.9,197.5 Q81.4,199.1 82.5,190.5 L83.9,180.8 Q85.0,172.2 79.3,173.1 Z" fill="#e02020"/><path d="M119.5,219.8 Q123.4,216.7 111.9,213.3 L98.8,209.4 Q87.2,206.0 86.7,210.0 L86.1,214.5 Q85.5,218.6 93.8,221.0 L103.0,223.8 Q111.3,226.2 115.2,223.2 Z" fill="#e02020"/><path d="M129.3,231.6 Q134.7,233.2 138.6,230.1 L143.0,226.7 Q146.9,223.7 141.5,222.1 L135.4,220.3 Q130.0,218.7 126.1,221.7 L121.7,225.1 Q117.8,228.2 123.2,229.8 Z" fill="#e02020"/><path d="M171.9,198.4 Q174.9,201.8 178.8,198.8 L183.1,195.4 Q187.0,192.3 184.0,188.9 L180.7,184.9 Q177.7,181.5 173.8,184.5 L169.4,187.9 Q165.5,191.0 168.5,194.4 Z" fill="#e02020"/><path d="M150.3,157.3 Q156.1,156.4 153.1,152.9 L149.7,149.0 Q146.7,145.5 141.0,146.4 L134.5,147.4 Q128.7,148.3 131.7,151.8 L135.1,155.7 Q138.1,159.2 143.9,158.3 Z" fill="#e02020"/><path d="M86.9,158.7 Q87.4,154.7 81.7,155.6 L75.2,156.6 Q69.5,157.4 68.9,161.5 L68.3,166.0 Q67.7,170.0 73.5,169.2 L80.0,168.2 Q85.7,167.3 86.3,163.2 Z" fill="#e02020"/><path d="M69.2,200.6 Q63.8,199.0 63.2,203.0 L62.6,207.6 Q62.1,211.6 67.5,213.2 L73.6,215.0 Q79.0,216.6 79.5,212.6 L80.1,208.1 Q80.7,204.0 75.3,202.4 Z" fill="#e02020"/><path d="M50.8,160.1 Q52.1,150.5 46.6,138.5 L40.3,125.0 Q34.8,113.0 30.1,115.1 L24.7,117.6 Q20.0,119.7 22.6,133.1 L25.6,148.1 Q28.2,161.5 34.5,167.6 L41.6,174.4 Q48.0,180.5 49.3,170.9 Z" fill="#0fa84e"/><path d="M53.9,137.1 Q54.5,133.0 50.9,125.3 L47.0,116.7 Q43.4,109.0 41.4,109.9 L39.2,110.9 Q37.2,111.9 42.2,122.7 L47.8,134.8 Q52.8,145.6 53.3,141.6 Z" fill="#0fa84e"/><path d="M27.0,96.1 Q24.7,91.1 21.7,92.5 L18.3,94.0 Q15.2,95.4 16.3,101.0 L17.6,107.3 Q18.7,112.9 22.9,111.0 L27.7,108.8 Q32.0,106.8 29.6,101.8 Z" fill="#0fa84e"/><path d="M13.4,122.8 Q11.4,123.7 13.1,132.2 L14.9,141.9 Q16.6,150.4 19.3,153.0 L22.3,155.8 Q24.9,158.4 22.6,146.4 L19.9,132.9 Q17.6,120.9 15.6,121.8 Z" fill="#0fa84e"/><path d="M31.8,180.2 Q32.9,185.8 37.0,189.7 L41.5,194.1 Q45.6,198.0 46.2,194.0 L46.8,189.4 Q47.3,185.4 41.6,179.9 L35.2,173.8 Q29.5,168.3 30.6,173.9 Z" fill="#0fa84e"/><path d="M57.2,161.7 Q54.9,156.6 53.7,165.3 L52.4,175.0 Q51.2,183.6 53.9,186.2 L56.9,189.0 Q59.6,191.6 60.4,185.5 L61.3,178.5 Q62.2,172.4 59.8,167.4 Z" fill="#0fa84e"/><path d="M64.0,159.0 Q64.6,154.9 62.2,149.9 L59.6,144.2 Q57.3,139.2 56.7,143.2 L56.1,147.7 Q55.6,151.7 57.9,156.8 L60.5,162.5 Q62.8,167.5 63.4,163.5 Z" fill="#0fa84e"/><path d="M38.6,103.8 Q40.6,102.9 38.3,97.8 L35.6,92.2 Q33.3,87.1 31.3,88.0 L29.1,89.0 Q27.1,90.0 29.4,95.0 L32.1,100.7 Q34.4,105.7 36.4,104.8 Z" fill="#0fa84e"/><path d="M13.9,102.1 Q12.8,96.5 10.8,97.4 L8.6,98.5 Q6.6,99.4 7.7,105.0 L9.0,111.3 Q10.1,116.9 12.0,116.0 L14.3,115.0 Q16.3,114.0 15.2,108.4 Z" fill="#0fa84e"/><path d="M20.6,159.8 Q17.9,157.2 19.0,162.8 L20.3,169.1 Q21.4,174.7 24.0,177.3 L27.0,180.2 Q29.7,182.7 28.6,177.1 L27.4,170.8 Q26.3,165.2 23.6,162.6 Z" fill="#0fa84e"/><path d="M49.4,197.1 Q48.8,201.1 51.5,203.7 L54.5,206.5 Q57.2,209.1 57.7,205.1 L58.3,200.5 Q58.9,196.5 56.2,193.9 L53.2,191.1 Q50.6,188.5 50.0,192.5 Z" fill="#0fa84e"/></svg>