<svg xmlns="http://www.w3.org/2000/svg" width="240" height="240" viewBox="0 0 240 240"><path d="M1.6,99.2 L31.7,85.4 L96.9,24.8 L107.2,1.1 L48.3,47.1 Z" fill="#111" stroke="#111" stroke-width="4.08" stroke-linejoin="round"/><path d="M151.2,145.8 L169.8,61.2 L94.3,22.2 L29.0,82.8 L64.2,159.2 Z" fill="#111" stroke="#111" stroke-width="4.08" stroke-linejoin="round"/><path d="M183.3,26.3 L101.4,2.0 L91.2,25.7 L166.7,64.6 L223.6,65.0 Z" fill="#111" stroke="#111" stroke-width="4.08" stroke-linejoin="round"/><path d="M221.2,59.9 L164.3,59.5 L145.7,144.2 L191.2,196.9 L237.8,144.8 Z" fill="#111" stroke="#111" stroke-width="4.08" stroke-linejoin="round"/><path d="M136.6,238.9 L195.5,192.9 L150.1,140.2 L63.1,153.6 L54.8,214.6 Z" fill="#111" stroke="#111" stroke-width="4.08" stroke-linejoin="round"/><path d="M68.1,156.2 L32.9,79.8 L2.8,93.6 L19.4,178.5 L59.8,217.2 Z" fill="#111" stroke="#111" stroke-width="4.08" stroke-linejoin="round"/><path d="M20.5,83.0 L40.3,73.9 L83.4,33.9 L90.2,18.3 L51.3,48.6 Z" fill="#7b2fbe" stroke="#111" stroke-width="3.06" stroke-linejoin="round"/><path d="M10.9,93.7 L27.0,86.3 L40.3,73.9 L20.5,83.0 Z" fill="#7b2fbe" stroke="#111" stroke-width="3.06" stroke-linejoin="round"/><path d="M46.5,71.1 L81.3,38.7 L83.4,33.9 L40.3,73.9 Z" fill="#7b2fbe" stroke="#111" stroke-width="3.06" stroke-linejoin="round"/><path d="M96.8,21.5 L102.2,8.8 L90.2,18.3 L83.4,33.9 Z" fill="#7b2fbe" stroke="#111" stroke-width="3.06" stroke-linejoin="round"/><path d="M92.3,13.4 L60.8,38.0 L51.3,48.6 L90.2,18.3 Z" fill="#7b2fbe" stroke="#111" stroke-width="3.06" stroke-linejoin="round"/><path d="M20.5,83.0 L51.3,48.6 L39.2,58.0 L14.3,85.8 Z" fill="#7b2fbe" stroke="#111" stroke-width="3.06" stroke-linejoin="round"/><path d="M4.8,96.5 L10.9,93.7 L20.5,83.0 L14.3,85.8 Z" fill="#7b2fbe" stroke="#111" stroke-width="3.06" stroke-linejoin="round"/><path d="M27.0,86.3 L33.1,83.5 L46.5,71.1 L40.3,73.9 Z" fill="#7b2fbe" stroke="#111" stroke-width="3.06" stroke-linejoin="round"/><path d="M81.3,38.7 L94.7,26.3 L96.8,21.5 L83.4,33.9 Z" fill="#ffd500" stroke="#111" stroke-width="3.06" stroke-linejoin="round"/><path d="M102.2,8.8 L104.3,4.0 L92.3,13.4 L90.2,18.3 Z" fill="#7b2fbe" stroke="#111" stroke-width="3.06" stroke-linejoin="round"/><path d="M60.8,38.0 L48.8,47.4 L39.2,58.0 L51.3,48.6 Z" fill="#7b2fbe" stroke="#111" stroke-width="3.06" stroke-linejoin="round"/><path d="M134.4,128.3 L146.6,72.4 L96.8,46.7 L53.7,86.7 L76.9,137.2 Z" fill="#f4f4f4" stroke="#111" stroke-width="3.06" stroke-linejoin="round"/><path d="M152.2,125.6 L162.1,80.4 L146.6,72.4 L134.4,128.3 Z" fill="#e02020" stroke="#111" stroke-width="3.06" stroke-linejoin="round"/><path d="M150.4,55.1 L110.1,34.3 L96.8,46.7 L146.6,72.4 Z" fill="#f4f4f4" stroke="#111" stroke-width="3.06" stroke-linejoin="round"/><path d="M81.3,38.7 L46.5,71.1 L53.7,86.7 L96.8,46.7 Z" fill="#f4f4f4" stroke="#111" stroke-width="3.06" stroke-linejoin="round"/><path d="M40.3,99.1 L59.1,139.9 L76.9,137.2 L53.7,86.7 Z" fill="#f4f4f4" stroke="#111" stroke-width="3.06" stroke-linejoin="round"/><path d="M134.4,128.3 L76.9,137.2 L84.1,152.8 L130.6,145.6 Z" fill="#0fa84e" stroke="#111" stroke-width="3.06" stroke-linejoin="round"/><path d="M148.4,142.9 L152.2,125.6 L134.4,128.3 L130.6,145.6 Z" fill="#0fa84e" stroke="#111" stroke-width="3.06" stroke-linejoin="round"/><path d="M162.1,80.4 L165.9,63.0 L150.4,55.1 L146.6,72.4 Z" fill="#7b2fbe" stroke="#111" stroke-width="3.06" stroke-linejoin="round"/><path d="M110.1,34.3 L94.7,26.3 L81.3,38.7 L96.8,46.7 Z" fill="#f4f4f4" stroke="#111" stroke-width="3.06" stroke-linejoin="round"/><path d="M46.5,71.1 L33.1,83.5 L40.3,99.1 L53.7,86.7 Z" fill="#f4f4f4" stroke="#111" stroke-width="3.06" stroke-linejoin="round"/><path d="M59.1,139.9 L66.3,155.5 L84.1,152.8 L76.9,137.2 Z" fill="#0fa84e" stroke="#111" stroke-width="3.06" stroke-linejoin="round"/><path d="M173.0,29.9 L119.0,13.8 L112.2,29.4 L162.1,55.1 L199.7,55.4 Z" fill="#ffd500" stroke="#111" stroke-width="3.06" stroke-linejoin="round"/><path d="M164.8,21.9 L121.1,9.0 L119.0,13.8 L173.0,29.9 Z" fill="#ffd500" stroke="#111" stroke-width="3.06" stroke-linejoin="round"/><path d="M102.2,8.8 L96.8,21.5 L112.2,29.4 L119.0,13.8 Z" fill="#ffd500" stroke="#111" stroke-width="3.06" stroke-linejoin="round"/><path d="M110.1,34.3 L150.4,55.1 L162.1,55.1 L112.2,29.4 Z" fill="#1565d8" stroke="#111" stroke-width="3.06" stroke-linejoin="round"/><path d="M177.6,63.1 L207.9,63.3 L199.7,55.4 L162.1,55.1 Z" fill="#ffd500" stroke="#111" stroke-width="3.06" stroke-linejoin="round"/><path d="M173.0,29.9 L199.7,55.4 L211.3,55.5 L189.8,34.8 Z" fill="#ffd500" stroke="#111" stroke-width="3.06" stroke-linejoin="round"/><path d="M181.6,26.9 L164.8,21.9 L173.0,29.9 L189.8,34.8 Z" fill="#ffd500" stroke="#111" stroke-width="3.06" stroke-linejoin="round"/><path d="M121.1,9.0 L104.3,4.0 L102.2,8.8 L119.0,13.8 Z" fill="#ffd500" stroke="#111" stroke-width="3.06" stroke-linejoin="round"/><path d="M96.8,21.5 L94.7,26.3 L110.1,34.3 L112.2,29.4 Z" fill="#1565d8" stroke="#111" stroke-width="3.06" stroke-linejoin="round"/><path d="M150.4,55.1 L165.9,63.0 L177.6,63.1 L162.1,55.1 Z" fill="#ffd500" stroke="#111" stroke-width="3.06" stroke-linejoin="round"/><path d="M207.9,63.3 L219.6,63.4 L211.3,55.5 L199.7,55.4 Z" fill="#ffd500" stroke="#111" stroke-width="3.06" stroke-linejoin="round"/><path d="M211.3,80.7 L173.7,80.4 L161.5,136.3 L191.5,171.2 L222.3,136.8 Z" fill="#1565d8" stroke="#111" stroke-width="3.06" stroke-linejoin="round"/><path d="M207.9,63.3 L177.6,63.1 L173.7,80.4 L211.3,80.7 Z" fill="#1565d8" stroke="#111" stroke-width="3.06" stroke-linejoin="round"/><path d="M162.1,80.4 L152.2,125.6 L161.5,136.3 L173.7,80.4 Z" fill="#1565d8" stroke="#111" stroke-width="3.06" stroke-linejoin="round"/><path d="M157.7,153.7 L181.9,181.8 L191.5,171.2 L161.5,136.3 Z" fill="#f4f4f4" stroke="#111" stroke-width="3.06" stroke-linejoin="round"/><path d="M200.8,182.0 L225.7,154.2 L222.3,136.8 L191.5,171.2 Z" fill="#1565d8" stroke="#111" stroke-width="3.06" stroke-linejoin="round"/><path d="M211.3,80.7 L222.3,136.8 L231.8,126.1 L223.0,80.8 Z" fill="#1565d8" stroke="#111" stroke-width="3.06" stroke-linejoin="round"/><path d="M219.6,63.4 L207.9,63.3 L211.3,80.7 L223.0,80.8 Z" fill="#1565d8" stroke="#111" stroke-width="3.06" stroke-linejoin="round"/><path d="M177.6,63.1 L165.9,63.0 L162.1,80.4 L173.7,80.4 Z" fill="#f4f4f4" stroke="#111" stroke-width="3.06" stroke-linejoin="round"/><path d="M152.2,125.6 L148.4,142.9 L157.7,153.7 L161.5,136.3 Z" fill="#f4f4f4" stroke="#111" stroke-width="3.06" stroke-linejoin="round"/><path d="M181.9,181.8 L191.2,192.6 L200.8,182.0 L191.5,171.2 Z" fill="#e02020" stroke="#111" stroke-width="3.06" stroke-linejoin="round"/><path d="M225.7,154.2 L235.2,143.5 L231.8,126.1 L222.3,136.8 Z" fill="#1565d8" stroke="#111" stroke-width="3.06" stroke-linejoin="round"/><path d="M131.0,221.6 L169.9,191.2 L139.9,156.4 L82.4,165.3 L76.9,205.6 Z" fill="#e02020" stroke="#111" stroke-width="3.06" stroke-linejoin="round"/><path d="M147.7,226.6 L179.2,202.0 L169.9,191.2 L131.0,221.6 Z" fill="#f4f4f4" stroke="#111" stroke-width="3.06" stroke-linejoin="round"/><path d="M181.9,181.8 L157.7,153.7 L139.9,156.4 L169.9,191.2 Z" fill="#e02020" stroke="#111" stroke-width="3.06" stroke-linejoin="round"/><path d="M130.6,145.6 L84.1,152.8 L82.4,165.3 L139.9,156.4 Z" fill="#e02020" stroke="#111" stroke-width="3.06" stroke-linejoin="round"/><path d="M64.6,168.0 L60.2,200.6 L76.9,205.6 L82.4,165.3 Z" fill="#e02020" stroke="#111" stroke-width="3.06" stroke-linejoin="round"/><path d="M131.0,221.6 L76.9,205.6 L75.2,218.1 L118.9,231.0 Z" fill="#e02020" stroke="#111" stroke-width="3.06" stroke-linejoin="round"/><path d="M135.7,236.0 L147.7,226.6 L131.0,221.6 L118.9,231.0 Z" fill="#e02020" stroke="#111" stroke-width="3.06" stroke-linejoin="round"/><path d="M179.2,202.0 L191.2,192.6 L181.9,181.8 L169.9,191.2 Z" fill="#ff7bac" stroke="#111" stroke-width="3.06" stroke-linejoin="round"/><path d="M157.7,153.7 L148.4,142.9 L130.6,145.6 L139.9,156.4 Z" fill="#e02020" stroke="#111" stroke-width="3.06" stroke-linejoin="round"/><path d="M84.1,152.8 L66.3,155.5 L64.6,168.0 L82.4,165.3 Z" fill="#e02020" stroke="#111" stroke-width="3.06" stroke-linejoin="round"/><path d="M60.2,200.6 L58.4,213.1 L75.2,218.1 L76.9,205.6 Z" fill="#e02020" stroke="#111" stroke-width="3.06" stroke-linejoin="round"/><path d="M57.4,152.4 L34.2,102.0 L14.3,111.1 L25.3,167.1 L51.9,192.7 Z" fill="#0fa84e" stroke="#111" stroke-width="3.06" stroke-linejoin="round"/><path d="M59.1,139.9 L40.3,99.1 L34.2,102.0 L57.4,152.4 Z" fill="#0fa84e" stroke="#111" stroke-width="3.06" stroke-linejoin="round"/><path d="M27.0,86.3 L10.9,93.7 L14.3,111.1 L34.2,102.0 Z" fill="#0fa84e" stroke="#111" stroke-width="3.06" stroke-linejoin="round"/><path d="M8.2,113.9 L17.0,159.2 L25.3,167.1 L14.3,111.1 Z" fill="#0fa84e" stroke="#111" stroke-width="3.06" stroke-linejoin="round"/><path d="M28.7,184.5 L50.2,205.2 L51.9,192.7 L25.3,167.1 Z" fill="#0fa84e" stroke="#111" stroke-width="3.06" stroke-linejoin="round"/><path d="M57.4,152.4 L51.9,192.7 L60.2,200.6 L64.6,168.0 Z" fill="#fff2b0" stroke="#111" stroke-width="3.06" stroke-linejoin="round"/><path d="M66.3,155.5 L59.1,139.9 L57.4,152.4 L64.6,168.0 Z" fill="#fff2b0" stroke="#111" stroke-width="3.06" stroke-linejoin="round"/><path d="M40.3,99.1 L33.1,83.5 L27.0,86.3 L34.2,102.0 Z" fill="#0fa84e" stroke="#111" stroke-width="3.06" stroke-linejoin="round"/><path d="M10.9,93.7 L4.8,96.5 L8.2,113.9 L14.3,111.1 Z" fill="#0fa84e" stroke="#111" stroke-width="3.06" stroke-linejoin="round"/><path d="M17.0,159.2 L20.4,176.6 L28.7,184.5 L25.3,167.1 Z" fill="#0fa84e" stroke="#111" stroke-width="3.06" stroke-linejoin="round"/><path d="M50.2,205.2 L58.4,213.1 L60.2,200.6 L51.9,192.7 Z" fill="#fff2b0" stroke="#111" stroke-width="3.06" stroke-linejoin="round"/></svg>