<svg xmlns="http://www.w3.org/2000/svg" width="240" height="240" viewBox="0 0 240 240"><path d="M6.0,86.1 L50.7,100.6 L123.0,48.1 L123.0,1.1 L50.7,24.6 Z" fill="#111" stroke="#111" stroke-width="4.09" stroke-linejoin="round"/><path d="M164.7,181.5 L192.3,96.5 L120.0,44.0 L47.7,96.5 L75.3,181.5 Z" fill="#111" stroke="#111" stroke-width="4.09" stroke-linejoin="round"/><path d="M189.3,24.6 L117.0,1.1 L117.0,48.1 L189.3,100.6 L234.0,86.1 Z" fill="#111" stroke="#111" stroke-width="4.09" stroke-linejoin="round"/><path d="M232.2,80.4 L187.5,95.0 L159.9,179.9 L187.5,217.9 L232.2,156.4 Z" fill="#111" stroke="#111" stroke-width="4.09" stroke-linejoin="round"/><path d="M120.0,237.9 L192.3,214.4 L164.7,176.4 L75.3,176.4 L47.7,214.4 Z" fill="#111" stroke="#111" stroke-width="4.09" stroke-linejoin="round"/><path d="M80.1,179.9 L52.5,95.0 L7.8,80.4 L7.8,156.4 L52.5,217.9 Z" fill="#111" stroke="#111" stroke-width="4.09" stroke-linejoin="round"/><path d="M28.0,74.5 L57.5,84.1 L105.2,49.4 L105.2,18.4 L57.5,33.9 Z" fill="#7b2fbe" stroke="#111" stroke-width="3.07" stroke-linejoin="round"/><path d="M18.8,87.1 L42.7,94.9 L57.5,84.1 L28.0,74.5 Z" fill="#7b2fbe" stroke="#111" stroke-width="3.07" stroke-linejoin="round"/><path d="M66.6,87.1 L105.2,59.1 L105.2,49.4 L57.5,84.1 Z" fill="#7b2fbe" stroke="#111" stroke-width="3.07" stroke-linejoin="round"/><path d="M120.0,38.7 L120.0,13.6 L105.2,18.4 L105.2,49.4 Z" fill="#7b2fbe" stroke="#111" stroke-width="3.07" stroke-linejoin="round"/><path d="M105.2,8.8 L66.6,21.3 L57.5,33.9 L105.2,18.4 Z" fill="#7b2fbe" stroke="#111" stroke-width="3.07" stroke-linejoin="round"/><path d="M28.0,74.5 L57.5,33.9 L42.7,38.7 L18.8,71.6 Z" fill="#7b2fbe" stroke="#111" stroke-width="3.07" stroke-linejoin="round"/><path d="M9.7,84.2 L18.8,87.1 L28.0,74.5 L18.8,71.6 Z" fill="#7b2fbe" stroke="#111" stroke-width="3.07" stroke-linejoin="round"/><path d="M42.7,94.9 L51.8,97.8 L66.6,87.1 L57.5,84.1 Z" fill="#7b2fbe" stroke="#111" stroke-width="3.07" stroke-linejoin="round"/><path d="M105.2,59.1 L120.0,48.3 L120.0,38.7 L105.2,49.4 Z" fill="#7b2fbe" stroke="#111" stroke-width="3.07" stroke-linejoin="round"/><path d="M120.0,13.6 L120.0,4.0 L105.2,8.8 L105.2,18.4 Z" fill="#7b2fbe" stroke="#111" stroke-width="3.07" stroke-linejoin="round"/><path d="M66.6,21.3 L51.8,26.2 L42.7,38.7 L57.5,33.9 Z" fill="#7b2fbe" stroke="#111" stroke-width="3.07" stroke-linejoin="round"/><path d="M149.5,160.6 L167.7,104.5 L120.0,69.8 L72.3,104.5 L90.5,160.6 Z" fill="#f4f4f4" stroke="#111" stroke-width="3.07" stroke-linejoin="round"/><path d="M167.8,160.6 L182.5,115.2 L167.7,104.5 L149.5,160.6 Z" fill="#f4f4f4" stroke="#111" stroke-width="3.07" stroke-linejoin="round"/><path d="M173.4,87.1 L134.8,59.1 L120.0,69.8 L167.7,104.5 Z" fill="#f4f4f4" stroke="#111" stroke-width="3.07" stroke-linejoin="round"/><path d="M105.2,59.1 L66.6,87.1 L72.3,104.5 L120.0,69.8 Z" fill="#f4f4f4" stroke="#111" stroke-width="3.07" stroke-linejoin="round"/><path d="M57.5,115.2 L72.2,160.6 L90.5,160.6 L72.3,104.5 Z" fill="#f4f4f4" stroke="#111" stroke-width="3.07" stroke-linejoin="round"/><path d="M149.5,160.6 L90.5,160.6 L96.2,178.0 L143.8,178.0 Z" fill="#f4f4f4" stroke="#111" stroke-width="3.07" stroke-linejoin="round"/><path d="M162.1,178.0 L167.8,160.6 L149.5,160.6 L143.8,178.0 Z" fill="#f4f4f4" stroke="#111" stroke-width="3.07" stroke-linejoin="round"/><path d="M182.5,115.2 L188.2,97.8 L173.4,87.1 L167.7,104.5 Z" fill="#f4f4f4" stroke="#111" stroke-width="3.07" stroke-linejoin="round"/><path d="M134.8,59.1 L120.0,48.3 L105.2,59.1 L120.0,69.8 Z" fill="#f4f4f4" stroke="#111" stroke-width="3.07" stroke-linejoin="round"/><path d="M66.6,87.1 L51.8,97.8 L57.5,115.2 L72.3,104.5 Z" fill="#f4f4f4" stroke="#111" stroke-width="3.07" stroke-linejoin="round"/><path d="M72.2,160.6 L77.9,178.0 L96.2,178.0 L90.5,160.6 Z" fill="#f4f4f4" stroke="#111" stroke-width="3.07" stroke-linejoin="round"/><path d="M182.5,33.9 L134.8,18.4 L134.8,49.4 L182.5,84.1 L212.0,74.5 Z" fill="#ffd500" stroke="#111" stroke-width="3.07" stroke-linejoin="round"/><path d="M173.4,21.3 L134.8,8.8 L134.8,18.4 L182.5,33.9 Z" fill="#ffd500" stroke="#111" stroke-width="3.07" stroke-linejoin="round"/><path d="M120.0,13.6 L120.0,38.7 L134.8,49.4 L134.8,18.4 Z" fill="#ffd500" stroke="#111" stroke-width="3.07" stroke-linejoin="round"/><path d="M134.8,59.1 L173.4,87.1 L182.5,84.1 L134.8,49.4 Z" fill="#ffd500" stroke="#111" stroke-width="3.07" stroke-linejoin="round"/><path d="M197.3,94.9 L221.2,87.1 L212.0,74.5 L182.5,84.1 Z" fill="#ffd500" stroke="#111" stroke-width="3.07" stroke-linejoin="round"/><path d="M182.5,33.9 L212.0,74.5 L221.2,71.6 L197.3,38.7 Z" fill="#ffd500" stroke="#111" stroke-width="3.07" stroke-linejoin="round"/><path d="M188.2,26.2 L173.4,21.3 L182.5,33.9 L197.3,38.7 Z" fill="#ffd500" stroke="#111" stroke-width="3.07" stroke-linejoin="round"/><path d="M134.8,8.8 L120.0,4.0 L120.0,13.6 L134.8,18.4 Z" fill="#ffd500" stroke="#111" stroke-width="3.07" stroke-linejoin="round"/><path d="M120.0,38.7 L120.0,48.3 L134.8,59.1 L134.8,49.4 Z" fill="#ffd500" stroke="#111" stroke-width="3.07" stroke-linejoin="round"/><path d="M173.4,87.1 L188.2,97.8 L197.3,94.9 L182.5,84.1 Z" fill="#ffd500" stroke="#111" stroke-width="3.07" stroke-linejoin="round"/><path d="M221.2,87.1 L230.3,84.2 L221.2,71.6 L212.0,74.5 Z" fill="#ffd500" stroke="#111" stroke-width="3.07" stroke-linejoin="round"/><path d="M221.2,102.7 L191.7,112.3 L173.4,168.4 L191.7,193.5 L221.2,152.9 Z" fill="#1565d8" stroke="#111" stroke-width="3.07" stroke-linejoin="round"/><path d="M221.2,87.1 L197.3,94.9 L191.7,112.3 L221.2,102.7 Z" fill="#1565d8" stroke="#111" stroke-width="3.07" stroke-linejoin="round"/><path d="M182.5,115.2 L167.8,160.6 L173.4,168.4 L191.7,112.3 Z" fill="#1565d8" stroke="#111" stroke-width="3.07" stroke-linejoin="round"/><path d="M167.8,185.8 L182.5,206.1 L191.7,193.5 L173.4,168.4 Z" fill="#1565d8" stroke="#111" stroke-width="3.07" stroke-linejoin="round"/><path d="M197.3,201.3 L221.2,168.4 L221.2,152.9 L191.7,193.5 Z" fill="#1565d8" stroke="#111" stroke-width="3.07" stroke-linejoin="round"/><path d="M221.2,102.7 L221.2,152.9 L230.3,140.3 L230.3,99.7 Z" fill="#1565d8" stroke="#111" stroke-width="3.07" stroke-linejoin="round"/><path d="M230.3,84.2 L221.2,87.1 L221.2,102.7 L230.3,99.7 Z" fill="#1565d8" stroke="#111" stroke-width="3.07" stroke-linejoin="round"/><path d="M197.3,94.9 L188.2,97.8 L182.5,115.2 L191.7,112.3 Z" fill="#1565d8" stroke="#111" stroke-width="3.07" stroke-linejoin="round"/><path d="M167.8,160.6 L162.1,178.0 L167.8,185.8 L173.4,168.4 Z" fill="#1565d8" stroke="#111" stroke-width="3.07" stroke-linejoin="round"/><path d="M182.5,206.1 L188.2,213.8 L197.3,201.3 L191.7,193.5 Z" fill="#1565d8" stroke="#111" stroke-width="3.07" stroke-linejoin="round"/><path d="M221.2,168.4 L230.3,155.8 L230.3,140.3 L221.2,152.9 Z" fill="#1565d8" stroke="#111" stroke-width="3.07" stroke-linejoin="round"/><path d="M120.0,226.4 L167.7,210.9 L149.5,185.8 L90.5,185.8 L72.3,210.9 Z" fill="#e02020" stroke="#111" stroke-width="3.07" stroke-linejoin="round"/><path d="M134.8,231.2 L173.4,218.7 L167.7,210.9 L120.0,226.4 Z" fill="#e02020" stroke="#111" stroke-width="3.07" stroke-linejoin="round"/><path d="M182.5,206.1 L167.8,185.8 L149.5,185.8 L167.7,210.9 Z" fill="#e02020" stroke="#111" stroke-width="3.07" stroke-linejoin="round"/><path d="M143.8,178.0 L96.2,178.0 L90.5,185.8 L149.5,185.8 Z" fill="#e02020" stroke="#111" stroke-width="3.07" stroke-linejoin="round"/><path d="M72.2,185.8 L57.5,206.1 L72.3,210.9 L90.5,185.8 Z" fill="#e02020" stroke="#111" stroke-width="3.07" stroke-linejoin="round"/><path d="M120.0,226.4 L72.3,210.9 L66.6,218.7 L105.2,231.2 Z" fill="#e02020" stroke="#111" stroke-width="3.07" stroke-linejoin="round"/><path d="M120.0,236.0 L134.8,231.2 L120.0,226.4 L105.2,231.2 Z" fill="#e02020" stroke="#111" stroke-width="3.07" stroke-linejoin="round"/><path d="M173.4,218.7 L188.2,213.8 L182.5,206.1 L167.7,210.9 Z" fill="#e02020" stroke="#111" stroke-width="3.07" stroke-linejoin="round"/><path d="M167.8,185.8 L162.1,178.0 L143.8,178.0 L149.5,185.8 Z" fill="#e02020" stroke="#111" stroke-width="3.07" stroke-linejoin="round"/><path d="M96.2,178.0 L77.9,178.0 L72.2,185.8 L90.5,185.8 Z" fill="#e02020" stroke="#111" stroke-width="3.07" stroke-linejoin="round"/><path d="M57.5,206.1 L51.8,213.8 L66.6,218.7 L72.3,210.9 Z" fill="#e02020" stroke="#111" stroke-width="3.07" stroke-linejoin="round"/><path d="M66.6,168.4 L48.3,112.3 L18.8,102.7 L18.8,152.9 L48.3,193.5 Z" fill="#0fa84e" stroke="#111" stroke-width="3.07" stroke-linejoin="round"/><path d="M72.2,160.6 L57.5,115.2 L48.3,112.3 L66.6,168.4 Z" fill="#0fa84e" stroke="#111" stroke-width="3.07" stroke-linejoin="round"/><path d="M42.7,94.9 L18.8,87.1 L18.8,102.7 L48.3,112.3 Z" fill="#0fa84e" stroke="#111" stroke-width="3.07" stroke-linejoin="round"/><path d="M9.7,99.7 L9.7,140.3 L18.8,152.9 L18.8,102.7 Z" fill="#0fa84e" stroke="#111" stroke-width="3.07" stroke-linejoin="round"/><path d="M18.8,168.4 L42.7,201.3 L48.3,193.5 L18.8,152.9 Z" fill="#0fa84e" stroke="#111" stroke-width="3.07" stroke-linejoin="round"/><path d="M66.6,168.4 L48.3,193.5 L57.5,206.1 L72.2,185.8 Z" fill="#0fa84e" stroke="#111" stroke-width="3.07" stroke-linejoin="round"/><path d="M77.9,178.0 L72.2,160.6 L66.6,168.4 L72.2,185.8 Z" fill="#0fa84e" stroke="#111" stroke-width="3.07" stroke-linejoin="round"/><path d="M57.5,115.2 L51.8,97.8 L42.7,94.9 L48.3,112.3 Z" fill="#0fa84e" stroke="#111" stroke-width="3.07" stroke-linejoin="round"/><path d="M18.8,87.1 L9.7,84.2 L9.7,99.7 L18.8,102.7 Z" fill="#0fa84e" stroke="#111" stroke-width="3.07" stroke-linejoin="round"/><path d="M9.7,140.3 L9.7,155.8 L18.8,168.4 L18.8,152.9 Z" fill="#0fa84e" stroke="#111" stroke-width="3.07" stroke-linejoin="round"/><path d="M42.7,201.3 L51.8,213.8 L57.5,206.1 L48.3,193.5 Z" fill="#0fa84e" stroke="#111" stroke-width="3.07" stroke-linejoin="round"/></svg>